<svg id="Слой_1" data-name="Слой 1" xmlns="http://www.w3.org/2000/svg" viewBox="0 0 1509.612 674.63"><title>Pattern</title><path d="M381.446,674.6H662.035L742.819,338.8C699,513.348,555.123,647.356,381.446,674.6Z"/><path d="M1066.247,674.6h329.784l109.976-310.9A466.456,466.456,0,0,1,1066.247,674.6Z"/><path d="M439.788,27.329,329.842,338.047v.064c-.85.066-1.768.066-2.686.131a342.124,342.124,0,0,0-214.063,84.671C52.652,475.691,11.006,549.163,0,632V338.242c4.323,0,8.643-.065,12.9-.195A466.4,466.4,0,0,0,439.788,27.329Z"/><path d="M329.842,338.111l-.067.131h-2.619C328.074,338.177,328.992,338.177,329.842,338.111Z"/><path d="M338.4,0H0V293.968H0C21.974,128.3,166.735,0,338.4,0Z"/><path d="M0,338.047H12.9c-4.256.13-8.576.195-12.9.195Z"/><path d="M338.421,338.047c-2.881,0-5.7.064-8.579.064v-.064Z"/><path d="M1509.586,60.792V338.439H1380.714a342.724,342.724,0,0,0-201.428,84.015c-60.373,52.778-102.087,126.252-113.022,209.087V674.63H788.681v-.263c152.772,0,276.6-123.436,277.583-275.946V338.439h-39.29A354.307,354.307,0,0,0,707.351,607.247l66.4-269.658H893.191c145.045-9.431,259.771-129.592,260.689-276.8v276.8h95.148C1394.005,328.158,1508.732,208,1509.586,60.792Z"/><path d="M1505.358,0H1226.21l-75.935,308.465h0l9.209-37.394A356.185,356.185,0,0,1,1505.358,0Z"/><path d="M1103.329.023A356.142,356.142,0,0,0,769.886,230.982L744.153,337.916A428.113,428.113,0,0,0,371.946,557.153L330.366,674.63H.592A466.7,466.7,0,0,0,431.667,386.5l18.4-48.588h11.655C626.61,312.115,764.716,190.643,816.9,29.622c3.143-9.692,6.024-19.58,8.512-29.6Z"/><path d="M825.416.023c-2.488,10.019-5.369,19.907-8.512,29.6l7.268-29.6Z"/><path d="M780.484,0H483.005L377.447,278.368A430.959,430.959,0,0,1,780.484,0Z"/><polygon points="1509.612 674.597 1425.275 674.597 1509.612 444.782 1509.612 674.597"/></svg>