<svg id="Слой_1" data-name="Слой 1" xmlns="http://www.w3.org/2000/svg" viewBox="0 0 2227.882 149.312"><defs><style>.cls-1{fill:none;}.cls-2{fill:#f5c830;}.cls-3{fill:#2a77ae;}.cls-4{fill:#fff;}</style></defs><title>logo_horizontal_black_RGB</title><path d="M1287.377,3.071h16.153l59.917,143.147h-13.293l-17.585-42.127h-74.642l-17.585,42.127h-12.883Zm41.1,90.59-33.128-79.753h-.206l-33.128,79.753Z"/><path d="M1389.42,3.071h42.945c32.923,0,53.166,16.153,53.166,42.534,0,21.473-13.7,35.992-36.6,40.49l49.282,60.123h-15.132l-48.056-58.281h-33.334v58.281H1389.42ZM1432.567,77.3c25.563,0,40.695-12.064,40.695-31.7s-15.132-31.7-40.695-31.7h-30.878V77.3Z"/><path d="M1560.2,14.932h-57.057V3.071h126.38V14.932h-57.053V146.218H1560.2Z"/><path d="M1707.436,3.071h85.887V14.727h-73.618v54.19h55.42V80.371h-55.42v65.847h-12.269Z"/><path d="M1815.805,85.074v-82h12.272v81.8c0,32.515,18.812,52.758,49.077,52.758,30.063,0,48.875-20.243,48.875-52.758V3.071H1938.3v82c0,38.852-23.928,64.212-61.147,64.212S1815.805,123.926,1815.805,85.074Z"/><path d="M1964.285,3.071h13.293l94.478,125.561V3.071h11.656V146.218h-13.088L1976.146,20.656V146.218h-11.861Z"/><path d="M2109.684,3.071h42.127c45.192,0,76.071,29.039,76.071,71.573s-30.879,71.574-76.071,71.574h-42.127Zm42.127,131.491c38.239,0,63.6-23.926,63.6-59.918s-25.36-59.917-63.6-59.917h-29.858V134.562Z"/><path class="cls-1" d="M813.863,31.5H785.432V69.338h28.431c14.111,0,23.111-7.568,23.111-19.02S827.974,31.5,813.863,31.5Z"/><ellipse class="cls-1" cx="649.618" cy="74.656" rx="41.726" ry="43.362"/><path class="cls-1" d="M240.64,89.421,230.207,60.066,220.083,31.581a.43.43,0,0,0-.406-.286h-.616a.432.432,0,0,0-.407.286L208.531,60.066,198.1,89.421a.431.431,0,0,0,.407.576h41.728A.432.432,0,0,0,240.64,89.421Z"/><path class="cls-1" d="M1081.09,32.726h-15.137v83.86h15.137c28.84,0,45.817-15.953,45.817-41.93S1109.93,32.726,1081.09,32.726Z"/><path class="cls-2" d="M260.378,145.958l-10.432-29.492h0l10.534,29.78h.305A.432.432,0,0,1,260.378,145.958Z"/><path class="cls-2" d="M240.957,3.07a.433.433,0,0,1,.4.278l53.874,142.313a.431.431,0,0,1-.4.584h.625L241.255,3.07Z"/><polygon class="cls-2" points="220.083 31.581 220.083 31.581 230.207 60.066 220.083 31.581"/><polygon class="cls-2" points="218.654 31.581 208.531 60.066 218.654 31.581 218.654 31.581"/><path class="cls-2" d="M227.225,3.07H198.506L188.338,29.927A41.581,41.581,0,0,1,227.225,3.07Z"/><path class="cls-2" d="M146.874,146.245h31.588L189,116.466A44.68,44.68,0,0,1,146.874,146.245Z"/><path class="cls-2" d="M144.526,145.661l-.222.584h.625A.431.431,0,0,1,144.526,145.661Z"/><path class="cls-2" d="M1075.514,3.07h-42.287V45.356A42.286,42.286,0,0,1,1075.514,3.07Z"/><path class="cls-3" d="M32.726,3.07H0V35.8A32.726,32.726,0,0,1,32.726,3.07Z"/><path class="cls-3" d="M483.533,146.245h35.079a8.986,8.986,0,0,0,8.73-6.854L560.642,3.07,535.666,105.314A53.665,53.665,0,0,1,483.533,146.245Z"/><path class="cls-3" d="M475.965,3.07H442.828l-7.92,32.175A42.283,42.283,0,0,1,475.965,3.07Z"/><path class="cls-2" d="M794.7,3.07H753.114V44.653A41.583,41.583,0,0,1,794.7,3.07Z"/><path class="cls-2" d="M753.114,146.245h32.318V113.927A32.318,32.318,0,0,1,753.114,146.245Z"/><path class="cls-3" d="M935.765,3.07H903.039V35.8A32.726,32.726,0,0,1,935.765,3.07Z"/><polygon class="cls-4" points="188.338 29.929 144.526 145.661 144.526 145.661 188.338 29.927 188.338 29.929"/><path class="cls-4" d="M249.539,116.178a.432.432,0,0,1,.407.287l-.1-.287Z"/><path class="cls-4" d="M220.083,31.581l-.1-.286h-.3A.43.43,0,0,1,220.083,31.581Z"/><path class="cls-4" d="M240.64,89.421a.432.432,0,0,1-.407.576h.611L230.207,60.066Z"/><polygon class="cls-4" points="188.996 116.466 188.996 116.466 188.996 116.466 188.996 116.466"/><path class="cls-4" d="M219.061,31.3h-.305l-.1.286A.432.432,0,0,1,219.061,31.3Z"/><path class="cls-4" d="M198.1,89.421l10.433-29.355L197.893,90h.612A.431.431,0,0,1,198.1,89.421Z"/><path d="M295.235,145.661,241.361,3.348a.433.433,0,0,0-.4-.278H227.225a41.581,41.581,0,0,0-38.887,26.857L144.526,145.661a.431.431,0,0,0,.4.584h1.945A44.68,44.68,0,0,0,189,116.466h0a.431.431,0,0,1,.407-.288h60.441l.1.287h0l10.432,29.492a.432.432,0,0,0,.407.287h34.047A.431.431,0,0,0,295.235,145.661ZM240.233,90h-42.34l10.638-29.931,10.123-28.485h0l.1-.286h1.225l.1.286h0l10.124,28.485L240.844,90Z"/><path d="M1081.09,3.07h-5.576a42.286,42.286,0,0,0-42.287,42.286V146.245h47.863c47.861,0,79.566-28.635,79.566-71.589C1160.656,31.5,1128.951,3.07,1081.09,3.07Zm0,113.516h-15.137V32.726h15.137c28.84,0,45.817,15.954,45.817,41.93S1109.93,116.586,1081.09,116.586Z"/><path d="M99.61,82.225c0,22.7-12.068,36-33.339,36s-33.545-13.3-33.545-36V3.07h0A32.726,32.726,0,0,0,0,35.8V83.452c0,39.884,26.181,65.86,66.271,65.86s66.065-25.976,66.065-65.86V3.07H99.61Z"/><polygon class="cls-4" points="434.908 35.246 416.647 109.429 434.908 35.245 434.908 35.246"/><path d="M501.942,109.224,475.965,3.07h0a42.283,42.283,0,0,0-41.057,32.175l-18.261,74.184L391.081,3.07H357.332l34.977,143.175h41.93L458.784,45.816l24.749,100.429h0a53.665,53.665,0,0,0,52.133-40.931L560.642,3.07H527.507Z"/><path d="M649.618,0c-42.953,0-75.064,31.909-75.064,74.656s32.111,74.656,75.064,74.656,75.065-31.907,75.065-74.656S692.572,0,649.618,0Zm0,118.018c-23.93,0-41.726-18.613-41.726-43.362S625.688,31.3,649.618,31.3s41.726,18.612,41.726,43.361S673.548,118.018,649.618,118.018Z"/><path d="M869.7,49.5c0-28.84-21.679-46.429-56.656-46.429H794.7a41.583,41.583,0,0,0-41.584,41.583V146.245a32.318,32.318,0,0,0,32.318-32.318v-18.2h20.454l35.385,50.522h37.634l-38.453-55.02C858.861,84.271,869.7,69.749,869.7,49.5ZM813.863,69.338H785.432V31.5h28.431c14.111,0,23.111,7.364,23.111,18.819S827.974,69.338,813.863,69.338Z"/><path d="M935.765,3.07h0A32.726,32.726,0,0,0,903.039,35.8V146.245h103.907V114.951H935.765Z"/></svg>