<?xml version="1.0" encoding="UTF-8"?>
<svg xmlns="http://www.w3.org/2000/svg" xmlns:xlink="http://www.w3.org/1999/xlink" width="30px" height="30px" viewBox="0 0 30 30" version="1.1">
<g id="surface1">
<path style=" stroke:none;fill-rule:nonzero;fill:rgb(0%,0%,0%);fill-opacity:1;" d="M 21.625 30 L 8.375 30 C 3.753906 29.992188 0.0078125 26.246094 0 21.625 L 0 8.375 C 0.0078125 3.753906 3.753906 0.0078125 8.375 0 L 21.625 0 C 26.246094 0.0078125 29.992188 3.753906 30 8.375 L 30 21.625 C 29.992188 26.246094 26.246094 29.992188 21.625 30 Z M 8.375 2.335938 C 5.042969 2.34375 2.34375 5.042969 2.335938 8.375 L 2.335938 21.625 C 2.34375 24.957031 5.042969 27.65625 8.375 27.664062 L 21.625 27.664062 C 24.957031 27.65625 27.65625 24.957031 27.664062 21.625 L 27.664062 8.375 C 27.65625 5.042969 24.957031 2.34375 21.625 2.335938 Z M 8.375 2.335938 "/>
<path style=" stroke:none;fill-rule:nonzero;fill:rgb(0%,0%,0%);fill-opacity:1;" d="M 20.363281 9.039062 L 6.9375 14.863281 C 6.765625 14.9375 6.664062 15.117188 6.679688 15.300781 C 6.695312 15.488281 6.832031 15.644531 7.011719 15.6875 L 10.0625 16.375 C 10.414062 16.472656 10.792969 16.425781 11.113281 16.25 L 17.75 12.199219 L 13.363281 16.960938 C 13.214844 17.117188 13.140625 17.332031 13.164062 17.542969 C 13.183594 17.757812 13.300781 17.953125 13.476562 18.074219 L 18.085938 21.25 C 18.433594 21.476562 18.871094 21.519531 19.253906 21.363281 C 19.636719 21.207031 19.914062 20.867188 20 20.460938 L 21.613281 10 C 21.65625 9.679688 21.523438 9.359375 21.265625 9.160156 C 21.007812 8.960938 20.664062 8.914062 20.363281 9.039062 Z M 20.363281 9.039062 "/>
</g>
</svg>
